M48
;Layer_Color=9474304
;FILE_FORMAT=4:4
METRIC,LZ
;TYPE=PLATED
T1F00S00C0.5000
%
T01
X00295Y00295
X00344Y003875
X005209Y00395
X005463
X005717
X005971
X006225
X00975Y00295
X009Y005067
Y005321
Y005575
X008202Y005454
Y0052
Y004946
Y004692
X007948
Y004946
Y0052
Y005454
Y005708
X008202
X00975Y00775
X007195Y005925
Y004525
X004255Y004975
Y005475
X00344Y005375
Y005875
Y006375
Y004875
Y004375
X00295Y00775
M30
