G04 Layer_Physical_Order=2*
G04 Layer_Color=39168*
%FSLAX44Y44*%
%MOMM*%
G71*
G01*
G75*
%ADD10R,1.7000X1.1000*%
%ADD11R,1.1000X1.7000*%
%ADD12R,2.1500X0.4000*%
%ADD13R,2.1500X0.4000*%
%ADD14R,1.0000X2.1000*%
%ADD15R,5.4000X6.2000*%
%ADD16R,2.0000X2.2000*%
%ADD17R,2.2000X2.0000*%
%ADD18C,0.5000*%
%ADD19C,1.0000*%
%ADD20C,0.3000*%
%ADD21C,0.5080*%
%ADD22C,0.2540*%
%ADD23R,3.0000X1.5240*%
G04:AMPARAMS|DCode=24|XSize=1.524mm|YSize=3mm|CornerRadius=0.381mm|HoleSize=0mm|Usage=FLASHONLY|Rotation=270.000|XOffset=0mm|YOffset=0mm|HoleType=Round|Shape=RoundedRectangle|*
%AMROUNDEDRECTD24*
21,1,1.5240,2.2380,0,0,270.0*
21,1,0.7620,3.0000,0,0,270.0*
1,1,0.7620,-1.1190,-0.3810*
1,1,0.7620,-1.1190,0.3810*
1,1,0.7620,1.1190,0.3810*
1,1,0.7620,1.1190,-0.3810*
%
%ADD24ROUNDEDRECTD24*%
%ADD25C,2.0000*%
%ADD26R,2.0000X2.0000*%
%ADD27R,2.0000X2.0000*%
%ADD28C,3.0000*%
G36*
X940000Y740000D02*
X1010646Y740000D01*
Y330000D01*
X940000Y330000D01*
X940000Y264354D01*
X455000D01*
X455000Y695000D01*
X264354Y695000D01*
Y740000D01*
X335000Y740000D01*
X335000Y805646D01*
X940000D01*
X940000Y740000D01*
D02*
G37*
%LPC*%
G36*
X644650Y496750D02*
X637150D01*
Y483500D01*
X635063D01*
X634000Y484000D01*
X634000Y484770D01*
Y495000D01*
X623500D01*
X613000D01*
Y484770D01*
X613000Y484000D01*
X611937Y483500D01*
X610000D01*
Y470000D01*
X625000D01*
Y467500D01*
X627500D01*
Y451500D01*
X640000D01*
Y465750D01*
X644650D01*
Y481250D01*
Y496750D01*
D02*
G37*
G36*
X657150Y478750D02*
X649650D01*
Y465750D01*
X657150D01*
Y478750D01*
D02*
G37*
G36*
X511000Y463500D02*
X500000D01*
Y455500D01*
X511000D01*
Y463500D01*
D02*
G37*
G36*
X657150Y496750D02*
X649650D01*
Y483750D01*
X657150D01*
Y496750D01*
D02*
G37*
G36*
X897500Y504200D02*
X885174D01*
X885217Y503759D01*
X886075Y500932D01*
X887468Y498326D01*
X889342Y496042D01*
X891626Y494168D01*
X894232Y492775D01*
X897059Y491917D01*
X897500Y491874D01*
Y504200D01*
D02*
G37*
G36*
X504500Y501000D02*
X496500D01*
Y490000D01*
X504500D01*
Y501000D01*
D02*
G37*
G36*
X491500D02*
X483500D01*
Y490000D01*
X491500D01*
Y501000D01*
D02*
G37*
G36*
X792300Y466700D02*
X779974D01*
X780017Y466259D01*
X780875Y463432D01*
X782268Y460826D01*
X784142Y458542D01*
X786426Y456668D01*
X789032Y455275D01*
X791860Y454417D01*
X792300Y454374D01*
Y466700D01*
D02*
G37*
G36*
X740000Y384500D02*
X729000D01*
Y376500D01*
X740000D01*
Y384500D01*
D02*
G37*
G36*
X756000Y371500D02*
X745000D01*
Y363500D01*
X756000D01*
Y371500D01*
D02*
G37*
G36*
X740000D02*
X729000D01*
Y363500D01*
X740000D01*
Y371500D01*
D02*
G37*
G36*
X756000Y384500D02*
X745000D01*
Y376500D01*
X756000D01*
Y384500D01*
D02*
G37*
G36*
X622500Y465000D02*
X610000D01*
Y451500D01*
X622500D01*
Y465000D01*
D02*
G37*
G36*
X509000Y447500D02*
X463500D01*
Y430500D01*
X509000D01*
Y447500D01*
D02*
G37*
G36*
X754000Y409500D02*
X731000D01*
Y407500D01*
X708500D01*
Y390500D01*
X731500D01*
Y390931D01*
X740500D01*
X742588Y391206D01*
X744535Y392012D01*
X745170Y392500D01*
X754000D01*
Y409500D01*
D02*
G37*
G36*
X914826Y504200D02*
X902500D01*
Y491874D01*
X902941Y491917D01*
X905768Y492775D01*
X908374Y494168D01*
X910658Y496042D01*
X912532Y498326D01*
X913925Y500932D01*
X914783Y503759D01*
X914826Y504200D01*
D02*
G37*
G36*
X717000Y590000D02*
X699650D01*
X699789Y588579D01*
X700933Y584809D01*
X702790Y581335D01*
X705289Y578289D01*
X708335Y575790D01*
X711809Y573933D01*
X715579Y572789D01*
X717000Y572649D01*
Y590000D01*
D02*
G37*
G36*
X692500Y541500D02*
X681500D01*
Y533500D01*
X692500D01*
Y541500D01*
D02*
G37*
G36*
X634000Y533500D02*
X626000D01*
Y522500D01*
X634000D01*
Y533500D01*
D02*
G37*
G36*
X739351Y590000D02*
X722000D01*
Y572649D01*
X723421Y572789D01*
X727191Y573933D01*
X730665Y575790D01*
X733711Y578289D01*
X736210Y581335D01*
X738067Y584809D01*
X739211Y588579D01*
X739351Y590000D01*
D02*
G37*
G36*
X835540Y780532D02*
X453746D01*
Y744460D01*
X835540D01*
Y780532D01*
D02*
G37*
G36*
X722000Y612351D02*
Y595000D01*
X739351D01*
X739211Y596421D01*
X738067Y600191D01*
X736210Y603665D01*
X733711Y606711D01*
X730665Y609210D01*
X727191Y611067D01*
X723421Y612211D01*
X722000Y612351D01*
D02*
G37*
G36*
X717000D02*
X715579Y612211D01*
X711809Y611067D01*
X708335Y609210D01*
X705289Y606711D01*
X702790Y603665D01*
X700933Y600191D01*
X699789Y596421D01*
X699650Y595000D01*
X717000D01*
Y612351D01*
D02*
G37*
G36*
X621000Y533500D02*
X613000D01*
Y522500D01*
X621000D01*
Y533500D01*
D02*
G37*
G36*
X741000Y515000D02*
X727500D01*
Y502500D01*
X741000D01*
Y515000D01*
D02*
G37*
G36*
X722500D02*
X709000D01*
Y502500D01*
X722500D01*
Y515000D01*
D02*
G37*
G36*
X634000Y517500D02*
X623500D01*
X613000D01*
Y506500D01*
Y500000D01*
X623500D01*
X634000D01*
Y506500D01*
Y517500D01*
D02*
G37*
G36*
X785000Y685608D02*
X625000D01*
X622854Y685181D01*
X621035Y683965D01*
X545177Y608108D01*
X517000D01*
Y614000D01*
X500000D01*
Y591000D01*
X500000Y591000D01*
X500000D01*
X499500Y589930D01*
X497069Y587500D01*
X485000D01*
X482854Y587073D01*
X481035Y585858D01*
X471781Y576604D01*
X470608Y577090D01*
Y583677D01*
X477931Y591000D01*
X490000D01*
Y614000D01*
X473000D01*
Y601931D01*
X461035Y589965D01*
X459819Y588146D01*
X459392Y586000D01*
Y540000D01*
X459819Y537854D01*
X461035Y536035D01*
X471035Y526035D01*
X472854Y524819D01*
X475000Y524392D01*
X477146Y524819D01*
X478033Y525412D01*
X486000D01*
Y522088D01*
X480533D01*
X479646Y522681D01*
X477500Y523108D01*
X475354Y522681D01*
X473535Y521465D01*
X466035Y513965D01*
X464819Y512146D01*
X464392Y510000D01*
Y492500D01*
X464819Y490354D01*
X466035Y488535D01*
X469392Y485177D01*
Y474500D01*
X463500D01*
Y457500D01*
X484000D01*
Y455500D01*
X495000D01*
Y466000D01*
X497500D01*
Y468500D01*
X511000D01*
Y476500D01*
X504500D01*
Y485000D01*
X494000D01*
X483500D01*
Y474500D01*
X480608D01*
Y487500D01*
X480181Y489646D01*
X478965Y491465D01*
X475608Y494823D01*
Y507677D01*
X480842Y512912D01*
X484000D01*
Y503750D01*
X497250D01*
Y510750D01*
X502250D01*
Y503750D01*
X515187D01*
X515392Y503500D01*
Y499000D01*
X512500D01*
Y476000D01*
X512931D01*
Y461500D01*
X513206Y459412D01*
X514012Y457466D01*
X515294Y455794D01*
X526931Y444158D01*
Y420842D01*
X515194Y409106D01*
X513912Y407435D01*
X513106Y405488D01*
X513094Y405396D01*
X511628Y404272D01*
X509544Y401556D01*
X508235Y398394D01*
X507788Y395000D01*
X508235Y391606D01*
X509544Y388444D01*
X511628Y385728D01*
X514344Y383644D01*
X517506Y382335D01*
X520900Y381888D01*
X524294Y382335D01*
X527456Y383644D01*
X530172Y385728D01*
X531725Y387753D01*
X533231Y387629D01*
X533768Y386626D01*
X535642Y384342D01*
X537926Y382468D01*
X540532Y381075D01*
X543359Y380217D01*
X543800Y380174D01*
Y395000D01*
Y409826D01*
X543359Y409783D01*
X540532Y408925D01*
X538600Y407892D01*
X537835Y408924D01*
X540706Y411794D01*
X541988Y413465D01*
X542794Y415412D01*
X543069Y417500D01*
Y447500D01*
X542794Y449588D01*
X541988Y451535D01*
X540706Y453206D01*
X529069Y464842D01*
Y476000D01*
X529500D01*
Y499000D01*
X526608D01*
Y501248D01*
X527681Y502854D01*
X528108Y505000D01*
Y531142D01*
X550000D01*
X550518Y531245D01*
X551500Y530440D01*
Y525250D01*
Y516721D01*
X550634Y516101D01*
X550230Y515964D01*
X548250Y516358D01*
X546104Y515931D01*
X544285Y514715D01*
X541035Y511465D01*
X539819Y509646D01*
X539392Y507500D01*
Y497500D01*
X539819Y495354D01*
X541035Y493535D01*
X552392Y482177D01*
Y423000D01*
X552819Y420854D01*
X554035Y419035D01*
X565392Y407677D01*
Y406458D01*
X565144Y406355D01*
X562428Y404272D01*
X560875Y402247D01*
X559369Y402370D01*
X558832Y403374D01*
X556958Y405658D01*
X554674Y407532D01*
X552068Y408925D01*
X549240Y409783D01*
X548800Y409826D01*
Y395000D01*
Y380174D01*
X549240Y380217D01*
X552068Y381075D01*
X554674Y382468D01*
X556958Y384342D01*
X558832Y386626D01*
X559369Y387629D01*
X560875Y387753D01*
X562428Y385728D01*
X565144Y383644D01*
X568306Y382335D01*
X571700Y381888D01*
X575094Y382335D01*
X578256Y383644D01*
X580972Y385728D01*
X583055Y388444D01*
X583713Y390031D01*
X585087D01*
X585745Y388444D01*
X587828Y385728D01*
X590544Y383644D01*
X593706Y382335D01*
X597100Y381888D01*
X600494Y382335D01*
X603656Y383644D01*
X606372Y385728D01*
X608230Y388150D01*
X609500Y387809D01*
Y382000D01*
X635500D01*
Y408000D01*
X609500D01*
Y402191D01*
X608230Y401850D01*
X606372Y404272D01*
X603656Y406355D01*
X600494Y407665D01*
X597100Y408112D01*
X593706Y407665D01*
X592758Y407272D01*
X583108Y416923D01*
Y453500D01*
X586931D01*
Y450000D01*
X587206Y447912D01*
X588012Y445965D01*
X589294Y444294D01*
X606794Y426794D01*
X608465Y425512D01*
X610412Y424706D01*
X612500Y424431D01*
X626658D01*
X640000Y411089D01*
Y379750D01*
X700000D01*
Y447750D01*
X640000D01*
Y435571D01*
X638827Y435085D01*
X635706Y438206D01*
X634035Y439488D01*
X632088Y440294D01*
X630000Y440569D01*
X615842D01*
X604181Y452230D01*
X604707Y453500D01*
X608000D01*
Y481500D01*
X600648D01*
Y486000D01*
X605000D01*
Y508500D01*
Y531500D01*
X602008D01*
X601681Y533146D01*
X600465Y534965D01*
X594715Y540715D01*
X592896Y541931D01*
X590750Y542358D01*
X581750D01*
X581000Y542973D01*
Y545162D01*
X604841D01*
X605354Y544819D01*
X607500Y544392D01*
X630000D01*
X632146Y544819D01*
X633965Y546035D01*
X707323Y619392D01*
X738485D01*
X742892Y614985D01*
Y546500D01*
X743319Y544354D01*
X744535Y542535D01*
X761892Y525177D01*
Y521900D01*
X762319Y519754D01*
X763535Y517935D01*
X782527Y498942D01*
X782135Y497994D01*
X781688Y494600D01*
X782135Y491206D01*
X783445Y488044D01*
X785528Y485328D01*
X787553Y483775D01*
X787429Y482269D01*
X786426Y481732D01*
X784142Y479858D01*
X782268Y477574D01*
X780875Y474968D01*
X780017Y472141D01*
X779974Y471700D01*
X794800D01*
Y469200D01*
X797300D01*
Y454374D01*
X797740Y454417D01*
X800568Y455275D01*
X803174Y456668D01*
X805458Y458542D01*
X807332Y460826D01*
X807869Y461829D01*
X809375Y461953D01*
X810928Y459928D01*
X812131Y459005D01*
Y453542D01*
X801658Y443069D01*
X773342D01*
X758206Y458206D01*
X756535Y459488D01*
X754588Y460294D01*
X752500Y460569D01*
X735597D01*
X734539Y462549D01*
X732290Y465289D01*
X729549Y467539D01*
X727569Y468597D01*
Y474500D01*
X739000D01*
Y500500D01*
X711000D01*
Y489319D01*
X703419D01*
Y495500D01*
X706500D01*
Y512500D01*
X683500D01*
Y495500D01*
X683891D01*
X684850Y494750D01*
Y467750D01*
X700850D01*
Y473181D01*
X711431D01*
Y468597D01*
X709451Y467539D01*
X706711Y465289D01*
X704461Y462549D01*
X702790Y459422D01*
X701760Y456029D01*
X701413Y452500D01*
X701760Y448971D01*
X702790Y445578D01*
X704461Y442451D01*
X706711Y439710D01*
X709451Y437461D01*
X711931Y436136D01*
Y434500D01*
X708500D01*
Y417500D01*
X731500D01*
Y434500D01*
X728069D01*
Y436670D01*
X729549Y437461D01*
X732290Y439710D01*
X734539Y442451D01*
X735597Y444431D01*
X749158D01*
X764294Y429294D01*
X765965Y428012D01*
X767912Y427206D01*
X770000Y426931D01*
X805000D01*
X807088Y427206D01*
X809035Y428012D01*
X810706Y429294D01*
X825906Y444494D01*
X827188Y446166D01*
X827994Y448112D01*
X828269Y450200D01*
Y459005D01*
X829472Y459928D01*
X831555Y462644D01*
X832865Y465806D01*
X833312Y469200D01*
X832865Y472594D01*
X831555Y475756D01*
X829472Y478472D01*
X826756Y480555D01*
X825169Y481213D01*
Y482587D01*
X826756Y483245D01*
X829472Y485328D01*
X831555Y488044D01*
X832865Y491206D01*
X833312Y494600D01*
X832865Y497994D01*
X831555Y501156D01*
X829472Y503872D01*
X826756Y505956D01*
X825169Y506613D01*
Y507987D01*
X826756Y508644D01*
X829472Y510728D01*
X831555Y513444D01*
X832865Y516606D01*
X833312Y520000D01*
X832865Y523394D01*
X831555Y526556D01*
X829472Y529272D01*
X826756Y531356D01*
X825169Y532013D01*
Y533387D01*
X826756Y534044D01*
X829472Y536128D01*
X831555Y538844D01*
X832865Y542006D01*
X833312Y545400D01*
X832865Y548794D01*
X831555Y551956D01*
X829472Y554672D01*
X826756Y556755D01*
X825169Y557413D01*
Y558787D01*
X826756Y559445D01*
X829472Y561528D01*
X831555Y564244D01*
X832865Y567406D01*
X833312Y570800D01*
X832865Y574194D01*
X831555Y577356D01*
X829472Y580072D01*
X826756Y582155D01*
X825808Y582548D01*
Y609800D01*
X825381Y611946D01*
X824482Y613292D01*
X825468Y614101D01*
X848000Y591569D01*
Y571000D01*
X857642D01*
Y564250D01*
X858069Y562104D01*
X859285Y560285D01*
X866035Y553535D01*
X867854Y552319D01*
X870000Y551892D01*
X887000D01*
Y544500D01*
X892809D01*
X893150Y543230D01*
X890728Y541372D01*
X888644Y538656D01*
X887335Y535494D01*
X886888Y532100D01*
X887335Y528706D01*
X888644Y525544D01*
X890728Y522828D01*
X892753Y521275D01*
X892629Y519769D01*
X891626Y519232D01*
X889342Y517358D01*
X887468Y515074D01*
X886075Y512468D01*
X885217Y509641D01*
X885174Y509200D01*
X900000D01*
X914826D01*
X914783Y509641D01*
X913925Y512468D01*
X912532Y515074D01*
X910658Y517358D01*
X908374Y519232D01*
X907371Y519769D01*
X907247Y521275D01*
X909272Y522828D01*
X911356Y525544D01*
X911748Y526492D01*
X912100D01*
X914246Y526919D01*
X916065Y528135D01*
X926465Y538535D01*
X927681Y540354D01*
X928108Y542500D01*
Y565000D01*
X927681Y567146D01*
X926465Y568965D01*
X916465Y578965D01*
X916465Y578965D01*
X914646Y580181D01*
X912500Y580608D01*
X893323D01*
X892000Y581931D01*
Y594000D01*
X881431D01*
X861465Y613965D01*
X859646Y615181D01*
X857500Y615608D01*
X857323D01*
X788965Y683965D01*
X787146Y685181D01*
X785000Y685608D01*
D02*
G37*
G36*
X692500Y528500D02*
X681500D01*
Y520500D01*
X692500D01*
Y528500D01*
D02*
G37*
G36*
X727500Y532500D02*
Y520000D01*
X741000D01*
Y532500D01*
X727500D01*
D02*
G37*
G36*
X708500Y541500D02*
X697500D01*
Y531000D01*
Y520500D01*
X707730D01*
X708500Y520500D01*
X708735Y520000D01*
X722500D01*
Y532500D01*
X709770D01*
X709000Y532500D01*
X708500Y533563D01*
Y541500D01*
D02*
G37*
%LPD*%
D10*
X720000Y426000D02*
D03*
Y399000D02*
D03*
X475000Y466000D02*
D03*
Y439000D02*
D03*
X742500Y374000D02*
D03*
Y401000D02*
D03*
X497500Y439000D02*
D03*
Y466000D02*
D03*
X695000Y531000D02*
D03*
Y504000D02*
D03*
D11*
X856500Y582500D02*
D03*
X883500D02*
D03*
X481500Y602500D02*
D03*
X508500D02*
D03*
X623500Y497500D02*
D03*
X596500D02*
D03*
X623500Y520000D02*
D03*
X596500D02*
D03*
X494000Y487500D02*
D03*
X521000D02*
D03*
D12*
X499750Y510750D02*
D03*
D13*
Y517250D02*
D03*
Y523750D02*
D03*
Y530250D02*
D03*
Y536750D02*
D03*
Y543250D02*
D03*
Y549750D02*
D03*
Y556250D02*
D03*
Y562750D02*
D03*
Y569250D02*
D03*
X565250Y510750D02*
D03*
Y517250D02*
D03*
Y523750D02*
D03*
Y530250D02*
D03*
Y536750D02*
D03*
Y543250D02*
D03*
Y549750D02*
D03*
Y556250D02*
D03*
Y562750D02*
D03*
Y569250D02*
D03*
D14*
X647150Y481250D02*
D03*
X692850Y481250D02*
D03*
D15*
X670000Y413750D02*
D03*
D16*
X595000Y467500D02*
D03*
X625000D02*
D03*
D17*
X725000Y487500D02*
D03*
Y517500D02*
D03*
D18*
X599500Y556500D02*
X622500D01*
X596808Y563000D02*
X613000D01*
X595000Y570000D02*
X680000Y655000D01*
X595000Y569500D02*
Y570000D01*
X582000Y569500D02*
X595000D01*
X599000Y556000D02*
X599500Y556500D01*
X596308Y562500D02*
X596808Y563000D01*
X581750Y569250D02*
X582000Y569500D01*
X680000Y655000D02*
X775000D01*
X565000Y590000D02*
X640000Y665000D01*
X562500Y590000D02*
X565000D01*
X785000Y680000D02*
X855000Y610000D01*
X507500Y597500D02*
X510500Y600500D01*
X625000Y680000D02*
X785000D01*
X547500Y602500D02*
X625000Y680000D01*
X508500Y602500D02*
X547500D01*
X485000Y581892D02*
X499392D01*
X472500Y569392D02*
X485000Y581892D01*
X472500Y547500D02*
Y569392D01*
Y547500D02*
X483250Y536750D01*
X522500D02*
X550000D01*
X571000Y395700D02*
Y410000D01*
X558000Y423000D02*
X571000Y410000D01*
X558000Y423000D02*
Y484500D01*
X545000Y497500D02*
X558000Y484500D01*
X582750Y517250D02*
X585000Y515000D01*
Y497500D02*
Y515000D01*
X571000Y395700D02*
X571700Y395000D01*
X545000Y497500D02*
Y507500D01*
X577500Y490000D02*
X585000Y497500D01*
X577500Y414600D02*
Y490000D01*
X649650Y520900D02*
X657500Y528750D01*
X725000Y517500D02*
X728846Y521346D01*
Y540000D01*
X704000D02*
X728846D01*
X695000Y531000D02*
X704000Y540000D01*
X692750Y528750D02*
X695000Y531000D01*
X657500Y528750D02*
X692750D01*
X619250Y543250D02*
X623500Y539000D01*
X584250Y543250D02*
X619250D01*
X649650Y481250D02*
Y520900D01*
X507500Y590000D02*
Y597500D01*
X794800Y520000D02*
X820200D01*
X577500Y414600D02*
X597100Y395000D01*
X545000Y507500D02*
X548250Y510750D01*
X465000Y540000D02*
X475000Y530000D01*
X465000Y540000D02*
Y586000D01*
X481500Y602500D01*
X499392Y581892D02*
X507500Y590000D01*
X470000Y510000D02*
X477500Y517500D01*
X470000Y492500D02*
Y510000D01*
Y492500D02*
X475000Y487500D01*
Y466000D02*
Y487500D01*
X494000Y469500D02*
X497500Y466000D01*
X494000Y469500D02*
Y487500D01*
X485000D02*
X494000D01*
X480000Y492500D02*
X485000Y487500D01*
X480000Y492500D02*
Y507500D01*
X483250Y510750D01*
X623500Y520000D02*
Y539000D01*
X596500Y520000D02*
Y531000D01*
X590750Y536750D02*
X596500Y531000D01*
X581750Y536750D02*
X590750D01*
X515000D02*
X522500D01*
Y505000D02*
Y536750D01*
X521000Y503500D02*
X522500Y505000D01*
X521000Y487500D02*
Y503500D01*
X794800Y494600D02*
X820200D01*
X825400D01*
X794800Y545400D02*
X820200D01*
X794800Y570800D02*
X820200D01*
X784600Y545400D02*
X794800D01*
X767500Y521900D02*
X794800Y494600D01*
X767500Y521900D02*
Y527500D01*
X583750Y556000D02*
X584000D01*
X599000D01*
X582500Y562500D02*
X596308D01*
X767500D02*
X784600Y545400D01*
X794800Y520000D02*
Y520200D01*
X755000Y560000D02*
X794800Y520200D01*
X820200Y570800D02*
Y609800D01*
X775000Y655000D02*
X820200Y609800D01*
X695000Y645000D02*
X747500D01*
X767500Y625000D01*
X613000Y563000D02*
X695000Y645000D01*
X767500Y562500D02*
Y625000D01*
X677500Y611500D02*
X678000D01*
X701500Y635000D02*
X740000D01*
X755000Y620000D01*
X678000Y611500D02*
X701500Y635000D01*
X622500Y556500D02*
X677500Y611500D01*
X755000Y560000D02*
Y620000D01*
X607500Y550000D02*
X630000D01*
X705000Y625000D01*
X740808D01*
X748500Y617308D01*
Y546500D02*
Y617308D01*
Y546500D02*
X767500Y527500D01*
X719500Y587000D02*
Y592500D01*
X695000Y562500D02*
X719500Y587000D01*
X695000Y531000D02*
Y562500D01*
X843150Y422500D02*
Y450650D01*
X899200Y506700D02*
X900000D01*
X843150Y450650D02*
X899200Y506700D01*
X898100Y534000D02*
X900000Y532100D01*
X499750Y556250D02*
X516250D01*
X532500Y572500D01*
X545000D01*
X562500Y590000D01*
X640000Y665000D02*
X782500D01*
X870000Y557500D02*
X900000D01*
X863250Y564250D02*
Y575750D01*
X856500Y582500D02*
X863250Y575750D01*
Y564250D02*
X870000Y557500D01*
X855000Y610000D02*
X857500D01*
X883500Y584000D01*
Y582500D02*
Y584000D01*
Y582500D02*
X891000Y575000D01*
X912500Y575000D02*
Y575000D01*
Y575000D02*
X922500Y565000D01*
X912100Y532100D02*
X922500Y542500D01*
X900000Y532100D02*
X912100D01*
X891000Y575000D02*
X912500D01*
X922500Y542500D02*
Y565000D01*
X782500Y665000D02*
X856500Y591000D01*
Y582500D02*
Y591000D01*
D19*
X275000Y630000D02*
X282500Y637500D01*
X344000D01*
X402500D02*
X425500Y614500D01*
X344000Y637500D02*
X402500D01*
X300000Y410000D02*
Y485000D01*
X302500Y487500D01*
X344000D01*
X300000Y410000D02*
X322500Y387500D01*
X344000D01*
X377500Y437500D02*
X405000Y410000D01*
X344000Y437500D02*
X377500D01*
X415500Y487500D02*
X423000Y495000D01*
X433000D01*
X344000Y487500D02*
X415500D01*
X423000Y545000D02*
X425500Y547500D01*
X415500Y537500D02*
X423000Y545000D01*
X433000D01*
X344000Y537500D02*
X415500D01*
X300000Y580000D02*
X307500Y587500D01*
X344000D01*
X820200Y462700D02*
Y469200D01*
Y450200D02*
Y462700D01*
X805000Y435000D02*
X820200Y450200D01*
X770000Y435000D02*
X805000D01*
X752500Y452500D02*
X770000Y435000D01*
X719500Y452500D02*
X752500D01*
X719500D02*
X720000Y452000D01*
Y426000D02*
Y452000D01*
X760000Y350000D02*
X786200Y376200D01*
X570100Y350000D02*
X760000D01*
X545100Y375000D02*
X570100Y350000D01*
X425500Y547500D02*
Y614500D01*
X275000Y395000D02*
Y630000D01*
Y395000D02*
X315000Y355000D01*
X315000D01*
X330000Y340000D01*
X380000D01*
X405000Y365000D01*
Y410000D01*
X300000Y485000D02*
Y580000D01*
X695000Y504000D02*
X695350Y503650D01*
Y481250D02*
Y503650D01*
X719000Y482500D02*
X719500Y482000D01*
Y452500D02*
Y482000D01*
X717750Y481250D02*
X719000Y482500D01*
X695350Y481250D02*
X717750D01*
X595000Y450000D02*
Y467500D01*
Y450000D02*
X612500Y432500D01*
X630000D01*
X648750Y413750D01*
X423000Y495000D02*
X425500Y497500D01*
X648750Y413750D02*
X672500D01*
X521000Y461500D02*
Y487500D01*
Y461500D02*
X535000Y447500D01*
Y417500D02*
Y447500D01*
X520900Y403400D02*
X535000Y417500D01*
X520900Y395000D02*
Y403400D01*
X747500Y517500D02*
X759500Y505500D01*
X725000Y517500D02*
X747500D01*
X497500Y375000D02*
X545100D01*
X497500Y466000D02*
X518500Y445000D01*
Y429000D02*
Y445000D01*
X492500Y403000D02*
X518500Y429000D01*
X492500Y380000D02*
Y403000D01*
Y380000D02*
X497500Y375000D01*
X786200Y376200D02*
X846200D01*
Y419450D01*
X843150Y422500D02*
X846200Y419450D01*
X759500Y480000D02*
X770300Y469200D01*
X794800D01*
X759500Y480000D02*
Y505500D01*
X720000Y399000D02*
X740500D01*
X742500Y401000D01*
D20*
X499750Y536750D02*
X515000D01*
X550000D02*
X565250D01*
X548250Y510750D02*
X565250D01*
Y517250D02*
X582750D01*
X565250Y543250D02*
X584250D01*
X499500Y530000D02*
X499750Y530250D01*
X475000Y530000D02*
X499500D01*
X483250Y536750D02*
X499750D01*
X499500Y517500D02*
X499750Y517250D01*
X477500Y517500D02*
X499500D01*
X483250Y510750D02*
X499750D01*
X565250Y536750D02*
X581750D01*
X565250Y569250D02*
X581750D01*
X565250Y562750D02*
X565500Y562500D01*
X582500D01*
X565250Y556250D02*
X583750D01*
X584000Y556000D01*
X565250Y549750D02*
X607250D01*
X607500Y550000D01*
D21*
X595000Y467500D02*
Y518500D01*
X625000Y467500D02*
Y518500D01*
X623500Y520000D02*
X625000Y518500D01*
X635900Y467500D02*
X649650Y481250D01*
X625000Y467500D02*
X635900D01*
X595000Y518500D02*
X596500Y520000D01*
X475000Y439000D02*
X497500D01*
X546300Y376200D02*
Y395000D01*
D22*
X813339Y770827D02*
X817504Y774992D01*
X825835D01*
X830000Y770827D01*
Y754165D01*
X825835Y750000D01*
X817504D01*
X813339Y754165D01*
X800843Y750000D02*
X792512D01*
X788347Y754165D01*
Y762496D01*
X792512Y766661D01*
X800843D01*
X805008Y762496D01*
Y754165D01*
X800843Y750000D01*
X780016D02*
Y766661D01*
X767520D01*
X763355Y762496D01*
Y750000D01*
X750859Y770827D02*
Y766661D01*
X755024D01*
X746694D01*
X750859D01*
Y754165D01*
X746694Y750000D01*
X734198Y766661D02*
Y750000D01*
Y758331D01*
X730032Y762496D01*
X725867Y766661D01*
X721702D01*
X705040Y750000D02*
X696710D01*
X692544Y754165D01*
Y762496D01*
X696710Y766661D01*
X705040D01*
X709206Y762496D01*
Y754165D01*
X705040Y750000D01*
X684214D02*
X675883D01*
X680048D01*
Y774992D01*
X684214D01*
X638395D02*
Y750000D01*
X625899D01*
X621734Y754165D01*
Y758331D01*
Y762496D01*
X625899Y766661D01*
X638395D01*
X609238D02*
X600907D01*
X596742Y762496D01*
Y750000D01*
X609238D01*
X613403Y754165D01*
X609238Y758331D01*
X596742D01*
X584246Y770827D02*
Y766661D01*
X588411D01*
X580081D01*
X584246D01*
Y754165D01*
X580081Y750000D01*
X567585Y774992D02*
Y750000D01*
Y762496D01*
X563419Y766661D01*
X555089D01*
X550924Y762496D01*
Y750000D01*
X517601D02*
X509270D01*
X513436D01*
Y774992D01*
X517601Y770827D01*
X496774Y750000D02*
Y754165D01*
X492609D01*
Y750000D01*
X496774D01*
X475948Y770827D02*
X471782Y774992D01*
X463452D01*
X459286Y770827D01*
Y754165D01*
X463452Y750000D01*
X471782D01*
X475948Y754165D01*
Y770827D01*
D23*
X344000Y387500D02*
D03*
Y587500D02*
D03*
Y487500D02*
D03*
D24*
Y437500D02*
D03*
Y637500D02*
D03*
Y537500D02*
D03*
D25*
X820200Y469200D02*
D03*
X794800D02*
D03*
X820200Y494600D02*
D03*
X794800D02*
D03*
X820200Y520000D02*
D03*
X794800D02*
D03*
X820200Y545400D02*
D03*
X794800D02*
D03*
X820200Y570800D02*
D03*
X900000Y506700D02*
D03*
Y532100D02*
D03*
X520900Y395000D02*
D03*
X546300D02*
D03*
X571700D02*
D03*
X597100D02*
D03*
D26*
X794800Y570800D02*
D03*
X900000Y557500D02*
D03*
D27*
X622500Y395000D02*
D03*
D28*
X719500Y592500D02*
D03*
X425500Y497500D02*
D03*
Y547500D02*
D03*
X719500Y452500D02*
D03*
X975000Y775000D02*
D03*
Y295000D02*
D03*
X295000Y775000D02*
D03*
Y295000D02*
D03*
M02*
